<mxfile host="Electron" agent="Mozilla/5.0 (Windows NT 10.0; Win64; x64) AppleWebKit/537.36 (KHTML, like Gecko) draw.io/26.2.2 Chrome/134.0.6998.178 Electron/35.1.2 Safari/537.36" version="26.2.2">
  <diagram name="Page-1" id="oKpc1l_Igcs4GMacKgKO">
    <mxGraphModel dx="1898" dy="1153" grid="1" gridSize="10" guides="1" tooltips="1" connect="1" arrows="1" fold="1" page="1" pageScale="1" pageWidth="850" pageHeight="1100" math="0" shadow="0">
      <root>
        <mxCell id="0" />
        <mxCell id="1" parent="0" />
        <mxCell id="_HXW_Upf4mI-iIRhQuMg-2" value="pushbutton" style="swimlane;fontStyle=1;align=center;verticalAlign=top;childLayout=stackLayout;horizontal=1;startSize=26;horizontalStack=0;resizeParent=1;resizeParentMax=0;resizeLast=0;collapsible=1;marginBottom=0;whiteSpace=wrap;html=1;" parent="1" vertex="1">
          <mxGeometry x="60" y="440" width="230" height="110" as="geometry" />
        </mxCell>
        <mxCell id="_HXW_Upf4mI-iIRhQuMg-3" value="" style="line;strokeWidth=1;fillColor=none;align=left;verticalAlign=middle;spacingTop=-1;spacingLeft=3;spacingRight=3;rotatable=0;labelPosition=right;points=[];portConstraint=eastwest;strokeColor=inherit;" parent="_HXW_Upf4mI-iIRhQuMg-2" vertex="1">
          <mxGeometry y="26" width="230" height="8" as="geometry" />
        </mxCell>
        <mxCell id="_HXW_Upf4mI-iIRhQuMg-4" value="+ initPushbutton(void): void&lt;div&gt;+ deinitPushbutton(void): void&lt;br&gt;&lt;div&gt;+ getPushbuttonCount(void): uint32_t&lt;/div&gt;&lt;div&gt;+ clearPushbuttonCount(void): uint32_t&lt;/div&gt;&lt;/div&gt;" style="text;strokeColor=none;fillColor=none;align=left;verticalAlign=top;spacingLeft=4;spacingRight=4;overflow=hidden;rotatable=0;points=[[0,0.5],[1,0.5]];portConstraint=eastwest;whiteSpace=wrap;html=1;" parent="_HXW_Upf4mI-iIRhQuMg-2" vertex="1">
          <mxGeometry y="34" width="230" height="76" as="geometry" />
        </mxCell>
        <mxCell id="_HXW_Upf4mI-iIRhQuMg-66" style="edgeStyle=orthogonalEdgeStyle;rounded=0;orthogonalLoop=1;jettySize=auto;html=1;entryX=0;entryY=0.5;entryDx=0;entryDy=0;" parent="1" source="_HXW_Upf4mI-iIRhQuMg-5" target="_HXW_Upf4mI-iIRhQuMg-64" edge="1">
          <mxGeometry relative="1" as="geometry" />
        </mxCell>
        <mxCell id="_HXW_Upf4mI-iIRhQuMg-5" value="infrared_sensor" style="swimlane;fontStyle=1;align=center;verticalAlign=top;childLayout=stackLayout;horizontal=1;startSize=26;horizontalStack=0;resizeParent=1;resizeParentMax=0;resizeLast=0;collapsible=1;marginBottom=0;whiteSpace=wrap;html=1;" parent="1" vertex="1">
          <mxGeometry x="310" y="740" width="240" height="150" as="geometry" />
        </mxCell>
        <mxCell id="_HXW_Upf4mI-iIRhQuMg-6" value="" style="line;strokeWidth=1;fillColor=none;align=left;verticalAlign=middle;spacingTop=-1;spacingLeft=3;spacingRight=3;rotatable=0;labelPosition=right;points=[];portConstraint=eastwest;strokeColor=inherit;" parent="_HXW_Upf4mI-iIRhQuMg-5" vertex="1">
          <mxGeometry y="26" width="240" height="8" as="geometry" />
        </mxCell>
        <mxCell id="_HXW_Upf4mI-iIRhQuMg-7" value="+ initInfraredSensor(void): void&lt;div&gt;+ deinitInfraredSensor(void): void&lt;/div&gt;&lt;div&gt;+ disableAllSensors(void): void&lt;br&gt;&lt;div&gt;+ readLeftFrontSensor(void): uint32_t&lt;/div&gt;&lt;div&gt;+ readLeftDiagonalSensor(void): uint32_t&lt;/div&gt;&lt;/div&gt;&lt;div&gt;&lt;div&gt;+ readRightFrontSensor(void): uint32_t&lt;/div&gt;&lt;div&gt;+ readRightDiagonalSensor(void): uint32_t&lt;/div&gt;&lt;/div&gt;" style="text;strokeColor=none;fillColor=none;align=left;verticalAlign=top;spacingLeft=4;spacingRight=4;overflow=hidden;rotatable=0;points=[[0,0.5],[1,0.5]];portConstraint=eastwest;whiteSpace=wrap;html=1;" parent="_HXW_Upf4mI-iIRhQuMg-5" vertex="1">
          <mxGeometry y="34" width="240" height="116" as="geometry" />
        </mxCell>
        <mxCell id="_HXW_Upf4mI-iIRhQuMg-8" value="led" style="swimlane;fontStyle=1;align=center;verticalAlign=top;childLayout=stackLayout;horizontal=1;startSize=26;horizontalStack=0;resizeParent=1;resizeParentMax=0;resizeLast=0;collapsible=1;marginBottom=0;whiteSpace=wrap;html=1;" parent="1" vertex="1">
          <mxGeometry x="310" y="440" width="160" height="250" as="geometry" />
        </mxCell>
        <mxCell id="_HXW_Upf4mI-iIRhQuMg-9" value="" style="line;strokeWidth=1;fillColor=none;align=left;verticalAlign=middle;spacingTop=-1;spacingLeft=3;spacingRight=3;rotatable=0;labelPosition=right;points=[];portConstraint=eastwest;strokeColor=inherit;" parent="_HXW_Upf4mI-iIRhQuMg-8" vertex="1">
          <mxGeometry y="26" width="160" height="8" as="geometry" />
        </mxCell>
        <mxCell id="_HXW_Upf4mI-iIRhQuMg-10" value="+ initLed(void): void&lt;div&gt;+ deinitLed(void): void&lt;br&gt;&lt;div&gt;+ setD1Led(void): void&lt;/div&gt;&lt;/div&gt;&lt;div&gt;+&amp;nbsp;&lt;span style=&quot;background-color: transparent; color: light-dark(rgb(0, 0, 0), rgb(255, 255, 255));&quot;&gt;setD2Led(void): void&lt;/span&gt;&lt;/div&gt;&lt;div&gt;+ setD3Led(void): void&lt;span style=&quot;background-color: transparent; color: light-dark(rgb(0, 0, 0), rgb(255, 255, 255));&quot;&gt;&lt;/span&gt;&lt;/div&gt;&lt;div&gt;&lt;span style=&quot;background-color: transparent; color: light-dark(rgb(0, 0, 0), rgb(255, 255, 255));&quot;&gt;+&lt;/span&gt;&lt;span style=&quot;background-color: transparent; color: light-dark(rgb(0, 0, 0), rgb(255, 255, 255));&quot;&gt;&amp;nbsp;&lt;/span&gt;setD4Led(void): void&lt;/div&gt;&lt;div&gt;+ clearD1Led(void): void&lt;/div&gt;&lt;div&gt;+ clearD2Led(void): void&lt;/div&gt;&lt;div&gt;+ clearD3Led(void): void&lt;/div&gt;&lt;div&gt;+ clearD4Led(void): void&lt;/div&gt;&lt;div&gt;+ toggleD1Led(void): void&lt;/div&gt;&lt;div&gt;+ toggleD2Led(void): void&lt;/div&gt;&lt;div&gt;+ toggleD3Led(void): void&lt;/div&gt;&lt;div&gt;+ toggleD4Led(void): void&lt;/div&gt;" style="text;strokeColor=none;fillColor=none;align=left;verticalAlign=top;spacingLeft=4;spacingRight=4;overflow=hidden;rotatable=0;points=[[0,0.5],[1,0.5]];portConstraint=eastwest;whiteSpace=wrap;html=1;" parent="_HXW_Upf4mI-iIRhQuMg-8" vertex="1">
          <mxGeometry y="34" width="160" height="216" as="geometry" />
        </mxCell>
        <mxCell id="_HXW_Upf4mI-iIRhQuMg-11" value="magnetic_encoder" style="swimlane;fontStyle=1;align=center;verticalAlign=top;childLayout=stackLayout;horizontal=1;startSize=26;horizontalStack=0;resizeParent=1;resizeParentMax=0;resizeLast=0;collapsible=1;marginBottom=0;whiteSpace=wrap;html=1;" parent="1" vertex="1">
          <mxGeometry x="490" y="440" width="250" height="140" as="geometry" />
        </mxCell>
        <mxCell id="_HXW_Upf4mI-iIRhQuMg-12" value="" style="line;strokeWidth=1;fillColor=none;align=left;verticalAlign=middle;spacingTop=-1;spacingLeft=3;spacingRight=3;rotatable=0;labelPosition=right;points=[];portConstraint=eastwest;strokeColor=inherit;" parent="_HXW_Upf4mI-iIRhQuMg-11" vertex="1">
          <mxGeometry y="26" width="250" height="8" as="geometry" />
        </mxCell>
        <mxCell id="_HXW_Upf4mI-iIRhQuMg-13" value="+ initMagneticEncoder(void): void&lt;div&gt;+ deinitMagneticEncoder(void): void&lt;br&gt;&lt;div&gt;+ getLeftEncoderEdgeCount(void): int32_t&lt;/div&gt;&lt;/div&gt;&lt;div&gt;+ getRightEncoderEdgeCount(void): int32_t&lt;/div&gt;&lt;div&gt;+ clearLeftEncoderEdgeCount(void): void&lt;/div&gt;&lt;div&gt;+ clearRightEncoderEdgeCount(void): void&lt;/div&gt;" style="text;strokeColor=none;fillColor=none;align=left;verticalAlign=top;spacingLeft=4;spacingRight=4;overflow=hidden;rotatable=0;points=[[0,0.5],[1,0.5]];portConstraint=eastwest;whiteSpace=wrap;html=1;" parent="_HXW_Upf4mI-iIRhQuMg-11" vertex="1">
          <mxGeometry y="34" width="250" height="106" as="geometry" />
        </mxCell>
        <mxCell id="_HXW_Upf4mI-iIRhQuMg-32" value="timer" style="swimlane;fontStyle=1;align=center;verticalAlign=top;childLayout=stackLayout;horizontal=1;startSize=26;horizontalStack=0;resizeParent=1;resizeParentMax=0;resizeLast=0;collapsible=1;marginBottom=0;whiteSpace=wrap;html=1;" parent="1" vertex="1">
          <mxGeometry x="763.76" y="440" width="250" height="140" as="geometry" />
        </mxCell>
        <mxCell id="_HXW_Upf4mI-iIRhQuMg-33" value="" style="line;strokeWidth=1;fillColor=none;align=left;verticalAlign=middle;spacingTop=-1;spacingLeft=3;spacingRight=3;rotatable=0;labelPosition=right;points=[];portConstraint=eastwest;strokeColor=inherit;" parent="_HXW_Upf4mI-iIRhQuMg-32" vertex="1">
          <mxGeometry y="26" width="250" height="8" as="geometry" />
        </mxCell>
        <mxCell id="_HXW_Upf4mI-iIRhQuMg-34" value="+ initTimer(void): void&lt;div&gt;+ deinitTimer(void): void&lt;br&gt;&lt;div&gt;+ startTimer(void): void&lt;/div&gt;&lt;/div&gt;&lt;div&gt;+ endTimer(void): void&lt;/div&gt;&lt;div&gt;+ getElapsedTimeMs(void): uint32_t&lt;/div&gt;&lt;div&gt;+ getElapsedTimeSec(void): uint32_t&lt;/div&gt;" style="text;strokeColor=none;fillColor=none;align=left;verticalAlign=top;spacingLeft=4;spacingRight=4;overflow=hidden;rotatable=0;points=[[0,0.5],[1,0.5]];portConstraint=eastwest;whiteSpace=wrap;html=1;" parent="_HXW_Upf4mI-iIRhQuMg-32" vertex="1">
          <mxGeometry y="34" width="250" height="106" as="geometry" />
        </mxCell>
        <mxCell id="_HXW_Upf4mI-iIRhQuMg-38" value="battery_comparator" style="swimlane;fontStyle=1;align=center;verticalAlign=top;childLayout=stackLayout;horizontal=1;startSize=26;horizontalStack=0;resizeParent=1;resizeParentMax=0;resizeLast=0;collapsible=1;marginBottom=0;whiteSpace=wrap;html=1;" parent="1" vertex="1">
          <mxGeometry x="60" y="740" width="230" height="90" as="geometry" />
        </mxCell>
        <mxCell id="_HXW_Upf4mI-iIRhQuMg-39" value="" style="line;strokeWidth=1;fillColor=none;align=left;verticalAlign=middle;spacingTop=-1;spacingLeft=3;spacingRight=3;rotatable=0;labelPosition=right;points=[];portConstraint=eastwest;strokeColor=inherit;" parent="_HXW_Upf4mI-iIRhQuMg-38" vertex="1">
          <mxGeometry y="26" width="230" height="8" as="geometry" />
        </mxCell>
        <mxCell id="_HXW_Upf4mI-iIRhQuMg-40" value="+ initBatteryComparator(void): void&lt;div&gt;+ deinitBatteryComparator(void): void&lt;br&gt;&lt;div&gt;+ isBatteryLow(void): bool&lt;/div&gt;&lt;/div&gt;" style="text;strokeColor=none;fillColor=none;align=left;verticalAlign=top;spacingLeft=4;spacingRight=4;overflow=hidden;rotatable=0;points=[[0,0.5],[1,0.5]];portConstraint=eastwest;whiteSpace=wrap;html=1;" parent="_HXW_Upf4mI-iIRhQuMg-38" vertex="1">
          <mxGeometry y="34" width="230" height="56" as="geometry" />
        </mxCell>
        <mxCell id="_HXW_Upf4mI-iIRhQuMg-67" style="edgeStyle=orthogonalEdgeStyle;rounded=0;orthogonalLoop=1;jettySize=auto;html=1;entryX=0.5;entryY=0;entryDx=0;entryDy=0;" parent="1" source="_HXW_Upf4mI-iIRhQuMg-41" target="_HXW_Upf4mI-iIRhQuMg-62" edge="1">
          <mxGeometry relative="1" as="geometry" />
        </mxCell>
        <mxCell id="_HXW_Upf4mI-iIRhQuMg-41" value="wheel_motor" style="swimlane;fontStyle=1;align=center;verticalAlign=top;childLayout=stackLayout;horizontal=1;startSize=26;horizontalStack=0;resizeParent=1;resizeParentMax=0;resizeLast=0;collapsible=1;marginBottom=0;whiteSpace=wrap;html=1;" parent="1" vertex="1">
          <mxGeometry x="574.99" y="740" width="310" height="250" as="geometry" />
        </mxCell>
        <mxCell id="_HXW_Upf4mI-iIRhQuMg-42" value="" style="line;strokeWidth=1;fillColor=none;align=left;verticalAlign=middle;spacingTop=-1;spacingLeft=3;spacingRight=3;rotatable=0;labelPosition=right;points=[];portConstraint=eastwest;strokeColor=inherit;" parent="_HXW_Upf4mI-iIRhQuMg-41" vertex="1">
          <mxGeometry y="26" width="310" height="8" as="geometry" />
        </mxCell>
        <mxCell id="_HXW_Upf4mI-iIRhQuMg-43" value="+ initWheelMotor(void): void&lt;div&gt;+ deinitIWheelMotor(void): void&lt;br&gt;&lt;div&gt;+ moveLeftWheelForward(uint32_t speed): void&lt;/div&gt;&lt;div&gt;+ moveLeftWheelBackward(uint32_t speed): void&lt;/div&gt;&lt;/div&gt;&lt;div&gt;&lt;div&gt;+ moveRightWheelForward(uint32_t speed): void&lt;/div&gt;&lt;div&gt;+ moveRightWheelBackward(uint32_t speed): void&lt;/div&gt;&lt;/div&gt;&lt;div&gt;+ setLeftWheelSpeed(uint32_t speed): void&lt;/div&gt;&lt;div&gt;+ setRightWheelSpeed(uint32_t speed): void&lt;/div&gt;&lt;div&gt;+ stopLeftWheel(void): void&lt;/div&gt;&lt;div&gt;+ stopRightWheel(void): void&lt;/div&gt;&lt;div&gt;+ getLeftWheelDirection(void): int32_t&lt;/div&gt;&lt;div&gt;+ getRightWheelDirection(void): int32_t&lt;/div&gt;&lt;div&gt;+ getLeftWheelSpeed(void): uint32_t&lt;/div&gt;&lt;div&gt;+ getRightWheelSpeed(void): uint32_t&lt;/div&gt;" style="text;strokeColor=none;fillColor=none;align=left;verticalAlign=top;spacingLeft=4;spacingRight=4;overflow=hidden;rotatable=0;points=[[0,0.5],[1,0.5]];portConstraint=eastwest;whiteSpace=wrap;html=1;" parent="_HXW_Upf4mI-iIRhQuMg-41" vertex="1">
          <mxGeometry y="34" width="310" height="216" as="geometry" />
        </mxCell>
        <mxCell id="_HXW_Upf4mI-iIRhQuMg-68" style="edgeStyle=orthogonalEdgeStyle;rounded=0;orthogonalLoop=1;jettySize=auto;html=1;entryX=1;entryY=0.5;entryDx=0;entryDy=0;" parent="1" source="_HXW_Upf4mI-iIRhQuMg-59" target="_HXW_Upf4mI-iIRhQuMg-64" edge="1">
          <mxGeometry relative="1" as="geometry" />
        </mxCell>
        <mxCell id="_HXW_Upf4mI-iIRhQuMg-59" value="vacuum" style="swimlane;fontStyle=1;align=center;verticalAlign=top;childLayout=stackLayout;horizontal=1;startSize=26;horizontalStack=0;resizeParent=1;resizeParentMax=0;resizeLast=0;collapsible=1;marginBottom=0;whiteSpace=wrap;html=1;" parent="1" vertex="1">
          <mxGeometry x="904.99" y="740" width="240" height="140" as="geometry" />
        </mxCell>
        <mxCell id="_HXW_Upf4mI-iIRhQuMg-60" value="" style="line;strokeWidth=1;fillColor=none;align=left;verticalAlign=middle;spacingTop=-1;spacingLeft=3;spacingRight=3;rotatable=0;labelPosition=right;points=[];portConstraint=eastwest;strokeColor=inherit;" parent="_HXW_Upf4mI-iIRhQuMg-59" vertex="1">
          <mxGeometry y="26" width="240" height="8" as="geometry" />
        </mxCell>
        <mxCell id="_HXW_Upf4mI-iIRhQuMg-61" value="+ initVacuum(void): void&lt;div&gt;+ deinitVacuum(void): void&lt;br&gt;&lt;div&gt;+ moveVacuum(uint32_t speed): void&lt;/div&gt;&lt;/div&gt;&lt;div&gt;+ setVacuumSpeed(uint32_t speed): void&lt;/div&gt;&lt;div&gt;+ stopVacuum(void): void&lt;/div&gt;&lt;div&gt;+ getVacuumSpeed(void): uint32_t&lt;/div&gt;" style="text;strokeColor=none;fillColor=none;align=left;verticalAlign=top;spacingLeft=4;spacingRight=4;overflow=hidden;rotatable=0;points=[[0,0.5],[1,0.5]];portConstraint=eastwest;whiteSpace=wrap;html=1;" parent="_HXW_Upf4mI-iIRhQuMg-59" vertex="1">
          <mxGeometry y="34" width="240" height="106" as="geometry" />
        </mxCell>
        <mxCell id="_HXW_Upf4mI-iIRhQuMg-62" value="power_enabler" style="swimlane;fontStyle=1;align=center;verticalAlign=top;childLayout=stackLayout;horizontal=1;startSize=26;horizontalStack=0;resizeParent=1;resizeParentMax=0;resizeLast=0;collapsible=1;marginBottom=0;whiteSpace=wrap;html=1;" parent="1" vertex="1">
          <mxGeometry x="614.99" y="1050" width="230" height="120" as="geometry" />
        </mxCell>
        <mxCell id="_HXW_Upf4mI-iIRhQuMg-63" value="" style="line;strokeWidth=1;fillColor=none;align=left;verticalAlign=middle;spacingTop=-1;spacingLeft=3;spacingRight=3;rotatable=0;labelPosition=right;points=[];portConstraint=eastwest;strokeColor=inherit;" parent="_HXW_Upf4mI-iIRhQuMg-62" vertex="1">
          <mxGeometry y="26" width="230" height="8" as="geometry" />
        </mxCell>
        <mxCell id="_HXW_Upf4mI-iIRhQuMg-64" value="+ initPowerEnabler(void): void&lt;div&gt;+ deinitPowerEnabler(void): void&lt;br&gt;&lt;div&gt;+ enablePower(void): void&lt;/div&gt;&lt;/div&gt;&lt;div&gt;+ disablePower(void): void&lt;/div&gt;&lt;div&gt;+ isPowerEnabled(void): bool&lt;/div&gt;" style="text;strokeColor=none;fillColor=none;align=left;verticalAlign=top;spacingLeft=4;spacingRight=4;overflow=hidden;rotatable=0;points=[[0,0.5],[1,0.5]];portConstraint=eastwest;whiteSpace=wrap;html=1;" parent="_HXW_Upf4mI-iIRhQuMg-62" vertex="1">
          <mxGeometry y="34" width="230" height="86" as="geometry" />
        </mxCell>
        <mxCell id="CrJSnwOvaSUAMsvAmyHB-18" value="motherboard_initialization" style="swimlane;fontStyle=1;align=center;verticalAlign=top;childLayout=stackLayout;horizontal=1;startSize=26;horizontalStack=0;resizeParent=1;resizeParentMax=0;resizeLast=0;collapsible=1;marginBottom=0;whiteSpace=wrap;html=1;" vertex="1" parent="1">
          <mxGeometry x="520" y="1270" width="230" height="100" as="geometry" />
        </mxCell>
        <mxCell id="CrJSnwOvaSUAMsvAmyHB-19" value="" style="line;strokeWidth=1;fillColor=none;align=left;verticalAlign=middle;spacingTop=-1;spacingLeft=3;spacingRight=3;rotatable=0;labelPosition=right;points=[];portConstraint=eastwest;strokeColor=inherit;" vertex="1" parent="CrJSnwOvaSUAMsvAmyHB-18">
          <mxGeometry y="26" width="230" height="8" as="geometry" />
        </mxCell>
        <mxCell id="CrJSnwOvaSUAMsvAmyHB-20" value="+ initMotherboard(void): void&lt;div&gt;+ deinitMotherboard(void): void&lt;/div&gt;&lt;div&gt;+ isMotherboardInitialized(void): bool&lt;/div&gt;" style="text;strokeColor=none;fillColor=none;align=left;verticalAlign=top;spacingLeft=4;spacingRight=4;overflow=hidden;rotatable=0;points=[[0,0.5],[1,0.5]];portConstraint=eastwest;whiteSpace=wrap;html=1;" vertex="1" parent="CrJSnwOvaSUAMsvAmyHB-18">
          <mxGeometry y="34" width="230" height="66" as="geometry" />
        </mxCell>
        <mxCell id="CrJSnwOvaSUAMsvAmyHB-21" value="" style="endArrow=none;html=1;rounded=0;" edge="1" parent="1">
          <mxGeometry width="50" height="50" relative="1" as="geometry">
            <mxPoint x="40" y="510" as="sourcePoint" />
            <mxPoint x="1280" y="510" as="targetPoint" />
            <Array as="points">
              <mxPoint x="40" y="1200" />
              <mxPoint x="1280" y="1200" />
            </Array>
          </mxGeometry>
        </mxCell>
        <mxCell id="CrJSnwOvaSUAMsvAmyHB-22" value="" style="endArrow=classic;html=1;rounded=0;" edge="1" parent="1">
          <mxGeometry width="50" height="50" relative="1" as="geometry">
            <mxPoint x="638.75" y="1200" as="sourcePoint" />
            <mxPoint x="638.75" y="1270" as="targetPoint" />
          </mxGeometry>
        </mxCell>
        <mxCell id="CrJSnwOvaSUAMsvAmyHB-23" value="hardware_device&lt;div&gt;&lt;hr&gt;&lt;br&gt;&lt;/div&gt;&lt;div&gt;&lt;br&gt;&lt;/div&gt;&lt;div&gt;&lt;br&gt;&lt;/div&gt;&lt;div&gt;&lt;br&gt;&lt;/div&gt;&lt;div&gt;&lt;br&gt;&lt;/div&gt;&lt;div&gt;&lt;br&gt;&lt;/div&gt;&lt;div&gt;&lt;br&gt;&lt;/div&gt;&lt;div&gt;&lt;br&gt;&lt;/div&gt;&lt;div&gt;&lt;br&gt;&lt;/div&gt;&lt;div&gt;&lt;br&gt;&lt;/div&gt;&lt;div&gt;&lt;br&gt;&lt;/div&gt;&lt;div&gt;&lt;br&gt;&lt;/div&gt;&lt;div&gt;&lt;br&gt;&lt;/div&gt;&lt;div&gt;&lt;br&gt;&lt;/div&gt;&lt;div&gt;&lt;br&gt;&lt;/div&gt;&lt;div&gt;&lt;br&gt;&lt;/div&gt;&lt;div&gt;&lt;br&gt;&lt;/div&gt;" style="shape=folder;fontStyle=1;tabWidth=80;tabHeight=30;tabPosition=left;html=1;boundedLbl=1;whiteSpace=wrap;" vertex="1" parent="1">
          <mxGeometry x="40" y="40" width="980" height="360" as="geometry" />
        </mxCell>
        <mxCell id="CrJSnwOvaSUAMsvAmyHB-24" value="&lt;b&gt;pushbutton&lt;/b&gt;" style="rounded=0;whiteSpace=wrap;html=1;" vertex="1" parent="1">
          <mxGeometry x="63.74000000000001" y="150" width="86.26" height="40" as="geometry" />
        </mxCell>
        <mxCell id="CrJSnwOvaSUAMsvAmyHB-25" style="edgeStyle=orthogonalEdgeStyle;rounded=0;orthogonalLoop=1;jettySize=auto;html=1;entryX=0;entryY=0.5;entryDx=0;entryDy=0;exitX=0.5;exitY=1;exitDx=0;exitDy=0;" edge="1" parent="1" source="CrJSnwOvaSUAMsvAmyHB-26" target="CrJSnwOvaSUAMsvAmyHB-35">
          <mxGeometry relative="1" as="geometry" />
        </mxCell>
        <mxCell id="CrJSnwOvaSUAMsvAmyHB-26" value="&lt;b&gt;infrared_sensor&lt;/b&gt;" style="rounded=0;whiteSpace=wrap;html=1;" vertex="1" parent="1">
          <mxGeometry x="648.74" y="150" width="120" height="40" as="geometry" />
        </mxCell>
        <mxCell id="CrJSnwOvaSUAMsvAmyHB-27" value="&lt;b&gt;led&lt;/b&gt;" style="rounded=0;whiteSpace=wrap;html=1;" vertex="1" parent="1">
          <mxGeometry x="164.99" y="150" width="43.76" height="40" as="geometry" />
        </mxCell>
        <mxCell id="CrJSnwOvaSUAMsvAmyHB-28" value="&lt;b&gt;magnetic_encoder&lt;/b&gt;" style="rounded=0;whiteSpace=wrap;html=1;" vertex="1" parent="1">
          <mxGeometry x="225.13" y="150" width="123.76" height="40" as="geometry" />
        </mxCell>
        <mxCell id="CrJSnwOvaSUAMsvAmyHB-29" value="&lt;b&gt;battery_comparator&lt;/b&gt;" style="rounded=0;whiteSpace=wrap;html=1;" vertex="1" parent="1">
          <mxGeometry x="505.70000000000005" y="150" width="130" height="40" as="geometry" />
        </mxCell>
        <mxCell id="CrJSnwOvaSUAMsvAmyHB-30" value="&lt;b&gt;timer&lt;/b&gt;" style="rounded=0;whiteSpace=wrap;html=1;" vertex="1" parent="1">
          <mxGeometry x="366.24" y="150" width="53.76" height="40" as="geometry" />
        </mxCell>
        <mxCell id="CrJSnwOvaSUAMsvAmyHB-31" style="edgeStyle=orthogonalEdgeStyle;rounded=0;orthogonalLoop=1;jettySize=auto;html=1;entryX=0.5;entryY=0;entryDx=0;entryDy=0;" edge="1" parent="1" source="CrJSnwOvaSUAMsvAmyHB-32" target="CrJSnwOvaSUAMsvAmyHB-35">
          <mxGeometry relative="1" as="geometry" />
        </mxCell>
        <mxCell id="CrJSnwOvaSUAMsvAmyHB-32" value="&lt;b&gt;wheel_motor&lt;/b&gt;" style="rounded=0;whiteSpace=wrap;html=1;" vertex="1" parent="1">
          <mxGeometry x="797.5" y="150" width="100" height="40" as="geometry" />
        </mxCell>
        <mxCell id="CrJSnwOvaSUAMsvAmyHB-33" style="edgeStyle=orthogonalEdgeStyle;rounded=0;orthogonalLoop=1;jettySize=auto;html=1;entryX=1;entryY=0.5;entryDx=0;entryDy=0;exitX=0.5;exitY=1;exitDx=0;exitDy=0;" edge="1" parent="1" source="CrJSnwOvaSUAMsvAmyHB-34" target="CrJSnwOvaSUAMsvAmyHB-35">
          <mxGeometry relative="1" as="geometry" />
        </mxCell>
        <mxCell id="CrJSnwOvaSUAMsvAmyHB-34" value="&lt;b&gt;vacuum&lt;/b&gt;" style="rounded=0;whiteSpace=wrap;html=1;" vertex="1" parent="1">
          <mxGeometry x="921.25" y="150" width="70" height="40" as="geometry" />
        </mxCell>
        <mxCell id="CrJSnwOvaSUAMsvAmyHB-35" value="&lt;b&gt;power_enabler&lt;/b&gt;" style="rounded=0;whiteSpace=wrap;html=1;" vertex="1" parent="1">
          <mxGeometry x="795.01" y="220" width="104.99" height="40" as="geometry" />
        </mxCell>
        <mxCell id="CrJSnwOvaSUAMsvAmyHB-36" value="&lt;b&gt;motherboard_initialization&lt;/b&gt;" style="rounded=0;whiteSpace=wrap;html=1;" vertex="1" parent="1">
          <mxGeometry x="445.92999999999995" y="330" width="168.14" height="40" as="geometry" />
        </mxCell>
        <mxCell id="CrJSnwOvaSUAMsvAmyHB-37" value="" style="endArrow=none;html=1;rounded=0;" edge="1" parent="1">
          <mxGeometry width="50" height="50" relative="1" as="geometry">
            <mxPoint x="1002.5" y="230" as="sourcePoint" />
            <mxPoint x="52.5" y="230" as="targetPoint" />
            <Array as="points">
              <mxPoint x="1002.5" y="280" />
              <mxPoint x="132.5" y="280" />
              <mxPoint x="52.5" y="280" />
            </Array>
          </mxGeometry>
        </mxCell>
        <mxCell id="CrJSnwOvaSUAMsvAmyHB-38" value="" style="endArrow=classic;html=1;rounded=0;entryX=0.5;entryY=0;entryDx=0;entryDy=0;" edge="1" parent="1" target="CrJSnwOvaSUAMsvAmyHB-36">
          <mxGeometry width="50" height="50" relative="1" as="geometry">
            <mxPoint x="529.76" y="280" as="sourcePoint" />
            <mxPoint x="413.76" y="420" as="targetPoint" />
          </mxGeometry>
        </mxCell>
        <mxCell id="CrJSnwOvaSUAMsvAmyHB-39" value="&lt;b&gt;delay&lt;/b&gt;" style="rounded=0;whiteSpace=wrap;html=1;" vertex="1" parent="1">
          <mxGeometry x="434.46000000000004" y="150" width="50" height="40" as="geometry" />
        </mxCell>
        <mxCell id="CrJSnwOvaSUAMsvAmyHB-40" value="delay" style="swimlane;fontStyle=1;align=center;verticalAlign=top;childLayout=stackLayout;horizontal=1;startSize=26;horizontalStack=0;resizeParent=1;resizeParentMax=0;resizeLast=0;collapsible=1;marginBottom=0;whiteSpace=wrap;html=1;" vertex="1" parent="1">
          <mxGeometry x="1030" y="440" width="230" height="110" as="geometry" />
        </mxCell>
        <mxCell id="CrJSnwOvaSUAMsvAmyHB-41" value="" style="line;strokeWidth=1;fillColor=none;align=left;verticalAlign=middle;spacingTop=-1;spacingLeft=3;spacingRight=3;rotatable=0;labelPosition=right;points=[];portConstraint=eastwest;strokeColor=inherit;" vertex="1" parent="CrJSnwOvaSUAMsvAmyHB-40">
          <mxGeometry y="26" width="230" height="8" as="geometry" />
        </mxCell>
        <mxCell id="CrJSnwOvaSUAMsvAmyHB-42" value="&lt;div&gt;+ initDelay(void): void&lt;/div&gt;&lt;div&gt;+ deinitDelay(void): void&lt;/div&gt;&lt;div&gt;+ delayMs(uint32_t delayTime): void&lt;/div&gt;&lt;div&gt;+ delayUs(uint32_t delayTime): void&lt;/div&gt;" style="text;strokeColor=none;fillColor=none;align=left;verticalAlign=top;spacingLeft=4;spacingRight=4;overflow=hidden;rotatable=0;points=[[0,0.5],[1,0.5]];portConstraint=eastwest;whiteSpace=wrap;html=1;" vertex="1" parent="CrJSnwOvaSUAMsvAmyHB-40">
          <mxGeometry y="34" width="230" height="76" as="geometry" />
        </mxCell>
      </root>
    </mxGraphModel>
  </diagram>
</mxfile>
